<?xml version="1.0"?>
<svg xmlns="http://www.w3.org/2000/svg" viewBox="0 0 50 50" enable-background="new 0 0 50 50">
    <path style="text-indent:0;text-align:start;line-height:normal;text-transform:none;block-progression:tb;-inkscape-font-specification:Bitstream Vera Sans" d="M 6 7 C 5.4777778 7 4.9395305 7.1854695 4.5625 7.5625 C 4.1854695 7.9395305 4 8.4777778 4 9 L 4 15 C 4 15.522222 4.1854695 16.060469 4.5625 16.4375 C 4.9395305 16.814531 5.4777778 17 6 17 L 14 17 C 14.522222 17 15.060469 16.814531 15.4375 16.4375 C 15.814531 16.060469 16 15.522222 16 15 L 16 9 C 16 8.4777778 15.814531 7.9395305 15.4375 7.5625 C 15.060469 7.1854695 14.522222 7 14 7 L 6 7 z M 21 7 C 20.477778 7 19.939531 7.1854695 19.5625 7.5625 C 19.185469 7.9395305 19 8.4777778 19 9 L 19 15 C 19 15.522222 19.185469 16.060469 19.5625 16.4375 C 19.939531 16.814531 20.477778 17 21 17 L 29 17 C 29.522222 17 30.060469 16.814531 30.4375 16.4375 C 30.814531 16.060469 31 15.522222 31 15 L 31 9 C 31 8.4777778 30.814531 7.9395305 30.4375 7.5625 C 30.060469 7.1854695 29.522222 7 29 7 L 21 7 z M 36 7 C 35.477778 7 34.939531 7.1854695 34.5625 7.5625 C 34.185469 7.9395305 34 8.4777778 34 9 L 34 15 C 34 15.522222 34.185469 16.060469 34.5625 16.4375 C 34.939531 16.814531 35.477778 17 36 17 L 44 17 C 44.522222 17 45.060469 16.814531 45.4375 16.4375 C 45.814531 16.060469 46 15.522222 46 15 L 46 9 C 46 8.4777778 45.814531 7.9395305 45.4375 7.5625 C 45.060469 7.1854695 44.522222 7 44 7 L 36 7 z M 6 9 L 14 9 L 14 15 L 6 15 L 6 9 z M 21 9 L 29 9 L 29 15 L 21 15 L 21 9 z M 36 9 L 44 9 L 44 15 L 36 15 L 36 9 z M 6 20 C 5.4777778 20 4.9395305 20.185469 4.5625 20.5625 C 4.1854695 20.939531 4 21.477778 4 22 L 4 28 C 4 28.522222 4.1854695 29.060469 4.5625 29.4375 C 4.9395305 29.814531 5.4777778 30 6 30 L 14 30 C 14.522222 30 15.060469 29.814531 15.4375 29.4375 C 15.814531 29.060469 16 28.522222 16 28 L 16 22 C 16 21.477778 15.814531 20.939531 15.4375 20.5625 C 15.060469 20.185469 14.522222 20 14 20 L 6 20 z M 21 20 C 20.477778 20 19.939531 20.185469 19.5625 20.5625 C 19.185469 20.939531 19 21.477778 19 22 L 19 28 C 19 28.522222 19.185469 29.060469 19.5625 29.4375 C 19.939531 29.814531 20.477778 30 21 30 L 29 30 C 29.522222 30 30.060469 29.814531 30.4375 29.4375 C 30.814531 29.060469 31 28.522222 31 28 L 31 22 C 31 21.477778 30.814531 20.939531 30.4375 20.5625 C 30.060469 20.185469 29.522222 20 29 20 L 21 20 z M 36 20 C 35.477778 20 34.939531 20.185469 34.5625 20.5625 C 34.185469 20.939531 34 21.477778 34 22 L 34 28 C 34 28.522222 34.185469 29.060469 34.5625 29.4375 C 34.939531 29.814531 35.477778 30 36 30 L 44 30 C 44.522222 30 45.060469 29.814531 45.4375 29.4375 C 45.814531 29.060469 46 28.522222 46 28 L 46 22 C 46 21.477778 45.814531 20.939531 45.4375 20.5625 C 45.060469 20.185469 44.522222 20 44 20 L 36 20 z M 6 22 L 14 22 L 14 28 L 6 28 L 6 22 z M 21 22 L 29 22 L 29 28 L 21 28 L 21 22 z M 36 22 L 44 22 L 44 28 L 36 28 L 36 22 z M 6 33 C 5.4777778 33 4.9395305 33.185469 4.5625 33.5625 C 4.1854695 33.939531 4 34.477778 4 35 L 4 41 C 4 41.522222 4.1854695 42.060469 4.5625 42.4375 C 4.9395305 42.814531 5.4777778 43 6 43 L 14 43 C 14.522222 43 15.060469 42.814531 15.4375 42.4375 C 15.814531 42.060469 16 41.522222 16 41 L 16 35 C 16 34.477778 15.814531 33.939531 15.4375 33.5625 C 15.060469 33.185469 14.522222 33 14 33 L 6 33 z M 21 33 C 20.477778 33 19.939531 33.185469 19.5625 33.5625 C 19.185469 33.939531 19 34.477778 19 35 L 19 41 C 19 41.522222 19.185469 42.060469 19.5625 42.4375 C 19.939531 42.814531 20.477778 43 21 43 L 29 43 C 29.522222 43 30.060469 42.814531 30.4375 42.4375 C 30.814531 42.060469 31 41.522222 31 41 L 31 35 C 31 34.477778 30.814531 33.939531 30.4375 33.5625 C 30.060469 33.185469 29.522222 33 29 33 L 21 33 z M 36 33 C 35.477778 33 34.939531 33.185469 34.5625 33.5625 C 34.185469 33.939531 34 34.477778 34 35 L 34 41 C 34 41.522222 34.185469 42.060469 34.5625 42.4375 C 34.939531 42.814531 35.477778 43 36 43 L 44 43 C 44.522222 43 45.060469 42.814531 45.4375 42.4375 C 45.814531 42.060469 46 41.522222 46 41 L 46 35 C 46 34.477778 45.814531 33.939531 45.4375 33.5625 C 45.060469 33.185469 44.522222 33 44 33 L 36 33 z M 6 35 L 14 35 L 14 41 L 6 41 L 6 35 z M 21 35 L 29 35 L 29 41 L 21 41 L 21 35 z M 36 35 L 44 35 L 44 41 L 36 41 L 36 35 z" overflow="visible" enable-background="accumulate" font-family="Bitstream Vera Sans"/>
</svg>
